<svg id="Layer_1" data-name="Layer 1" xmlns="http://www.w3.org/2000/svg" viewBox="0 0 285.82 353.39"><defs><style>.cls-1{fill:#424242;}.cls-2{fill:#65b5f5;}.cls-3{fill:#fefefe;}</style></defs><path class="cls-1" d="M311.33,320.46c6-1.08,6.21-1.39,6.18-7.35a160.05,160.05,0,0,0-15.41-67.23l-1.51-3.27c4.39-3.09,7.93-2.61,12.07.76,30.12,24.54,42.71,56.12,34.72,94-8.08,38.3-32.67,62.83-70.67,72.21-52.8,13-106.63-24.08-113.71-78-4.89-37.21,8.38-67.19,38.2-89.91a5.38,5.38,0,0,1,5.75-1A137.27,137.27,0,0,0,259,249c2.47-.09,3.5,1,4.58,2.86a122.53,122.53,0,0,1,17.08,61.21c.07,5.42.52,6,5.88,7v18.13c0,1.25,0,2.5,0,3.74,0,2.49,1.24,4.18,3.77,4.21s3.76-1.62,3.81-4.12q.17-9.18.32-18.34c0-1.12.11-2.24.17-3.59h9c0,6,0,11.85,0,17.69,0,1.25,0,2.49,0,3.74-.07,2.51.6,4.63,3.51,4.75s4.09-1.88,4.12-4.62q.07-8.79.13-17.59C311.34,322.87,311.33,321.63,311.33,320.46Zm-48.67,8.66a6.82,6.82,0,0,0-7.07-7,7,7,0,0,0-7,6.77,7.21,7.21,0,0,0,7,7.28A7.1,7.1,0,0,0,262.66,329.12Zm-14.08,29.69a7.27,7.27,0,0,0,6.67,7.59,7.16,7.16,0,0,0,7.38-6.43,7,7,0,0,0-6.38-7.69A7.16,7.16,0,0,0,248.58,358.81Zm14.09-60.09a7.07,7.07,0,0,0-7.27-6.91,7.32,7.32,0,0,0-6.84,7.08,7.06,7.06,0,1,0,14.11-.17Z" transform="translate(-108.56 -58.77)"/><path class="cls-1" d="M259,215.13c-15.6-.18-27.58-2.16-39.28-6-3.05-1-6.29-1.37-9.37-2.27a4.81,4.81,0,0,1-2.7-2q-13.89-26-1.35-52.72a6.39,6.39,0,0,1,3.22-2.73q30.38-12.43,60.87-24.63a7.46,7.46,0,0,1,4.89-.13c31.17,11.3,45.48,51.71,28.47,80.2-.46.79-1.17,1.78-1.95,2-8.66,2.2-17.29,4.55-26.05,6.24C269.16,214.34,262.41,214.73,259,215.13ZM244.87,178.2c0,5.55,3.91,10.94,9.41,12.06,10,2,20.06,3.76,30.14,5.34a5,5,0,0,0,4.19-2,4.89,4.89,0,0,0-.84-4.56c-7.67-7.13-15.42-14.18-23.45-20.89-3.73-3.12-8.34-3.11-12.68-.82A12.31,12.31,0,0,0,244.87,178.2Zm5.19,28.72c2.69,0,5.17-.93,5.68-4s-1.65-4.72-4.53-5.31c-1-.2-2-.2-3-.41-4.32-1-8.43-2.23-11-6.28-2.17-3.39-5.07-4.19-7.79-2.29s-2.77,4.49-.32,7.85C234.23,203.47,241.76,205.75,250.06,206.92Zm31.78-51.44a7.2,7.2,0,0,0-7.24-7,7,7,0,0,0-7.06,7.42,7.16,7.16,0,0,0,7.33,6.84A7.34,7.34,0,0,0,281.84,155.48Zm-52.32.12a7.1,7.1,0,0,0,7,7.18,7.29,7.29,0,0,0,7.29-7.33,7.11,7.11,0,0,0-7.24-6.94A7,7,0,0,0,229.52,155.6Z" transform="translate(-108.56 -58.77)"/><path class="cls-2" d="M260.2,95.42l-64.62,26.1c-3.49-8.89-7.3-17.16-9.94-25.79-2.21-7.21,1.89-14.47,8.88-17.38,12.07-5,24.19-9.93,36.38-14.64,8.38-3.24,16.42.38,19.92,8.7C254,79.85,256.93,87.37,260.2,95.42Z" transform="translate(-108.56 -58.77)"/><path class="cls-2" d="M256.62,241.49a135.86,135.86,0,0,1-48.16-8.25,20.37,20.37,0,0,1-2.41-1c-4.85-2.49-7.49-7.57-6.07-11.59,1.55-4.36,7.18-7.07,12.48-5.77,7.49,1.83,14.85,4.25,22.39,5.73,20.11,4,39.85,2,59.32-4.2A27.82,27.82,0,0,1,305,215.25c3.53.33,6.09,3,6.76,6.65a7.77,7.77,0,0,1-3.81,8.35,60.66,60.66,0,0,1-12.9,5.59C282.09,239.59,268.84,241.7,256.62,241.49Z" transform="translate(-108.56 -58.77)"/><path class="cls-2" d="M195.55,146.35c-4.53,0-7.32-2.68-8.28-7.09-.76-3.44,1.1-6.46,5-8.06q23-9.33,46-18.61,15.06-6.07,30.09-12.2c5.65-2.29,9-1.06,11.16,4.19,1.88,4.46.17,8.1-5.08,10.23q-37.69,15.31-75.43,30.51A29.68,29.68,0,0,1,195.55,146.35Z" transform="translate(-108.56 -58.77)"/><path class="cls-2" d="M309.79,312H288.27a133.38,133.38,0,0,0-17.72-63.23l22.1-4.11C303.56,265.58,309.07,288.06,309.79,312Z" transform="translate(-108.56 -58.77)"/><path class="cls-1" d="M341.27,263.5l-4.54-6.62c6.59-6.55,12.9-13.27,19.73-19.42a13.45,13.45,0,0,0,4.86-12.05c-.39-5.21-.05-10.47-.1-15.71,0-2.64.53-4.94,3.68-5,3.31,0,4,2.32,4,5.12,0,4.69,0,9.37,0,15.07,4.68-4.73,8.66-8.78,12.66-12.8.79-.79,1.63-2,2.54-2.09,1.53-.14,3.54,0,4.61.87,1.8,1.51,1.31,3.63-.29,5.27-3.39,3.48-6.82,6.94-10.31,10.33a34.44,34.44,0,0,1-3.52,2.65l.65,1.1c4.67,0,9.33,0,14,0,2.76,0,5.18.51,5.19,3.89s-2.44,3.92-5.17,3.91c-6.36,0-12.73.11-19.08-.06a7.67,7.67,0,0,0-6.19,2.63C356.58,248.21,349.06,255.67,341.27,263.5Z" transform="translate(-108.56 -58.77)"/><path class="cls-1" d="M136.33,229.36c-4.18-4.09-8.36-8.2-12.57-12.27-2-1.92-3.29-4.08-1-6.44s4.44-1.14,6.39.87a134.89,134.89,0,0,0,13.26,12.39c0-3.11,0-6.21,0-9.31,0-1.87,0-3.74,0-5.61.1-2.36,1-4.22,3.69-4.28,2.84-.06,4,1.81,4,4.36.07,6,.28,12-.06,18-.24,4.09,1.08,6.93,4,9.71,6.9,6.49,13.47,13.32,20.41,20.25l-4.45,6.28c-7.67-7.67-15.3-15.19-22.79-22.85a7.65,7.65,0,0,0-6.18-2.6c-6.48.18-13,0-19.45.08-2.74,0-4.9-.87-4.83-3.86s2.25-3.83,5-3.79c4.77.06,9.54,0,14.31,0Z" transform="translate(-108.56 -58.77)"/><path class="cls-1" d="M355,177.75a6.57,6.57,0,0,1-6.46,6.76,6.73,6.73,0,1,1,6.46-6.76Z" transform="translate(-108.56 -58.77)"/><path class="cls-1" d="M348.28,72.19A6.74,6.74,0,0,1,341.73,79a6.75,6.75,0,1,1,6.55-6.76Z" transform="translate(-108.56 -58.77)"/><path class="cls-1" d="M374.6,101.17a6.9,6.9,0,0,1-6.47-7.28,6.76,6.76,0,0,1,13.49.93A6.91,6.91,0,0,1,374.6,101.17Z" transform="translate(-108.56 -58.77)"/><path class="cls-1" d="M117.59,144.3a6.72,6.72,0,0,1-7-6.73,6.76,6.76,0,1,1,13.51,0A6.59,6.59,0,0,1,117.59,144.3Z" transform="translate(-108.56 -58.77)"/><path class="cls-1" d="M115.53,94.3a6.78,6.78,0,0,1,6.6,6.72,6.91,6.91,0,0,1-6.88,6.86,7.13,7.13,0,0,1-6.69-6.77A7,7,0,0,1,115.53,94.3Z" transform="translate(-108.56 -58.77)"/><path class="cls-1" d="M160.53,96.22a6.78,6.78,0,0,1-6.5,6.83A6.63,6.63,0,0,1,147,96.5a7,7,0,0,1,6.45-7A7,7,0,0,1,160.53,96.22Z" transform="translate(-108.56 -58.77)"/><path class="cls-1" d="M384.2,154.27a6.8,6.8,0,1,1-.08-13.6,6.8,6.8,0,0,1,.08,13.6Z" transform="translate(-108.56 -58.77)"/><path class="cls-1" d="M138,167.38a6.8,6.8,0,0,1,6.66,6.7,6.64,6.64,0,0,1-6.55,6.74,6.57,6.57,0,0,1-6.84-6.8A6.79,6.79,0,0,1,138,167.38Z" transform="translate(-108.56 -58.77)"/><path class="cls-1" d="M346.34,134.85a6.75,6.75,0,0,1-6.7-6.64,6.55,6.55,0,0,1,6.47-6.77,6.74,6.74,0,0,1,7,6.73A6.94,6.94,0,0,1,346.34,134.85Z" transform="translate(-108.56 -58.77)"/><path class="cls-1" d="M151.45,141.64a6.92,6.92,0,0,1-6.83-6.6,6.65,6.65,0,0,1,6.46-6.84,6.45,6.45,0,0,1,6.94,6.27A6.78,6.78,0,0,1,151.45,141.64Z" transform="translate(-108.56 -58.77)"/><path class="cls-1" d="M135.78,65.39a6.86,6.86,0,0,1-6.54,6.83,6.55,6.55,0,0,1-6.86-6.75,6.74,6.74,0,0,1,6.63-6.7A6.9,6.9,0,0,1,135.78,65.39Z" transform="translate(-108.56 -58.77)"/><path class="cls-1" d="M316,91.66A6.73,6.73,0,1,1,309,98,6.79,6.79,0,0,1,316,91.66Z" transform="translate(-108.56 -58.77)"/><path class="cls-3" d="M262.66,329.12a7.1,7.1,0,0,1-7.13,7.06,7.21,7.21,0,0,1-7-7.28,7,7,0,0,1,7-6.77A6.82,6.82,0,0,1,262.66,329.12Z" transform="translate(-108.56 -58.77)"/><path class="cls-3" d="M248.58,358.81a7.16,7.16,0,0,1,7.67-6.53,7,7,0,0,1,6.38,7.69,7.16,7.16,0,0,1-7.38,6.43A7.27,7.27,0,0,1,248.58,358.81Z" transform="translate(-108.56 -58.77)"/><path class="cls-3" d="M262.67,298.72a7.06,7.06,0,1,1-14.11.17,7.32,7.32,0,0,1,6.84-7.08A7.07,7.07,0,0,1,262.67,298.72Z" transform="translate(-108.56 -58.77)"/><path class="cls-3" d="M244.87,178.2a12.31,12.31,0,0,1,6.77-10.88c4.34-2.29,8.95-2.3,12.68.82,8,6.71,15.78,13.76,23.45,20.89a4.89,4.89,0,0,1,.84,4.56,5,5,0,0,1-4.19,2c-10.08-1.58-20.14-3.32-30.14-5.34C248.78,189.14,244.88,183.75,244.87,178.2Zm26.77,7,.19.41c0-.06,0-.16,0-.19a1.48,1.48,0,0,0-.27-.16c-3.77-3.56-7.39-7.3-11.4-10.55a5.48,5.48,0,0,0-5.06-.28A5.73,5.73,0,0,0,253,179c.1,1.34,1.69,3.42,2.95,3.7C261.09,183.84,266.39,184.42,271.64,185.2Z" transform="translate(-108.56 -58.77)"/><path class="cls-3" d="M250.06,206.92c-8.3-1.17-15.83-3.45-20.94-10.46-2.45-3.36-2.28-6,.32-7.85s5.62-1.1,7.79,2.29c2.59,4,6.7,5.33,11,6.28,1,.21,2,.21,3,.41,2.88.59,5,2.11,4.53,5.31S252.75,206.92,250.06,206.92Z" transform="translate(-108.56 -58.77)"/><path class="cls-3" d="M281.84,155.48a7.34,7.34,0,0,1-7,7.29,7.16,7.16,0,0,1-7.33-6.84,7,7,0,0,1,7.06-7.42A7.2,7.2,0,0,1,281.84,155.48Z" transform="translate(-108.56 -58.77)"/><path class="cls-3" d="M229.52,155.6a7,7,0,0,1,7-7.09,7.11,7.11,0,0,1,7.24,6.94,7.29,7.29,0,0,1-7.29,7.33A7.1,7.1,0,0,1,229.52,155.6Z" transform="translate(-108.56 -58.77)"/><path class="cls-1" d="M271.64,185.2c-5.25-.78-10.55-1.36-15.72-2.5-1.26-.28-2.85-2.36-2.95-3.7a5.73,5.73,0,0,1,2.14-4.57,5.48,5.48,0,0,1,5.06.28c4,3.25,7.63,7,11.4,10.55Z" transform="translate(-108.56 -58.77)"/><path class="cls-1" d="M271.57,185.26a1.48,1.48,0,0,1,.27.16s0,.13,0,.19c-.06-.13-.13-.27-.19-.41Z" transform="translate(-108.56 -58.77)"/></svg>